<svg width="350" height="69" viewBox="0 0 350 69" fill="none" xmlns="http://www.w3.org/2000/svg">
<path d="M0 0.428574H6.85714V7.28571H0V0.428574ZM6.85714 0.428574H13.7143V7.28571H6.85714V0.428574ZM13.7143 0.428574H20.5714V7.28571H13.7143V0.428574ZM20.5714 0.428574H27.4286V7.28571H20.5714V0.428574ZM27.4286 0.428574H34.2857V7.28571H27.4286V0.428574ZM34.2857 0.428574H41.1429V7.28571H34.2857V0.428574ZM34.2857 7.28571H41.1429V14.1429H34.2857V7.28571ZM27.4286 7.28571H34.2857V14.1429H27.4286V7.28571ZM20.5714 7.28571H27.4286V14.1429H20.5714V7.28571ZM13.7143 7.28571H20.5714V14.1429H13.7143V7.28571ZM6.85714 7.28571H13.7143V14.1429H6.85714V7.28571ZM0 7.28571H6.85714V14.1429H0V7.28571ZM41.1429 7.28571H48V14.1429H41.1429V7.28571ZM41.1429 14.1429H48V21H41.1429V14.1429ZM41.1429 21H48V27.8571H41.1429V21ZM34.2857 21H41.1429V27.8571H34.2857V21ZM34.2857 14.1429H41.1429V21H34.2857V14.1429ZM34.2857 27.8571H41.1429V34.7143H34.2857V27.8571ZM27.4286 27.8571H34.2857V34.7143H27.4286V27.8571ZM20.5714 27.8571H27.4286V34.7143H20.5714V27.8571ZM13.7143 27.8571H20.5714V34.7143H13.7143V27.8571ZM6.85714 27.8571H13.7143V34.7143H6.85714V27.8571ZM6.85714 21H13.7143V27.8571H6.85714V21ZM6.85714 14.1429H13.7143V21H6.85714V14.1429ZM0 14.1429H6.85714V21H0V14.1429ZM0 21H6.85714V27.8571H0V21ZM0 27.8571H6.85714V34.7143H0V27.8571ZM0 34.7143H6.85714V41.5714H0V34.7143ZM6.85714 34.7143H13.7143V41.5714H6.85714V34.7143ZM13.7143 34.7143H20.5714V41.5714H13.7143V34.7143ZM20.5714 34.7143H27.4286V41.5714H20.5714V34.7143ZM27.4286 34.7143H34.2857V41.5714H27.4286V34.7143ZM34.2857 34.7143H41.1429V41.5714H34.2857V34.7143ZM41.1429 34.7143H48V41.5714H41.1429V34.7143ZM41.1429 41.5714H48V48.4286H41.1429V41.5714ZM34.2857 41.5714H41.1429V48.4286H34.2857V41.5714ZM34.2857 55.2857H41.1429V62.1429H34.2857V55.2857ZM41.1429 55.2857H48V62.1429H41.1429V55.2857ZM41.1429 48.4286H48V55.2857H41.1429V48.4286ZM34.2857 48.4286H41.1429V55.2857H34.2857V48.4286ZM34.2857 62.1429H41.1429V69H34.2857V62.1429ZM27.4286 62.1429H34.2857V69H27.4286V62.1429ZM20.5714 62.1429H27.4286V69H20.5714V62.1429ZM13.7143 62.1429H20.5714V69H13.7143V62.1429ZM6.85714 62.1429H13.7143V69H6.85714V62.1429ZM0 62.1429H6.85714V69H0V62.1429ZM0 55.2857H6.85714V62.1429H0V55.2857ZM0 48.4286H6.85714V55.2857H0V48.4286ZM0 41.5714H6.85714V48.4286H0V41.5714ZM6.85714 41.5714H13.7143V48.4286H6.85714V41.5714ZM6.85714 48.4286H13.7143V55.2857H6.85714V48.4286ZM6.85714 55.2857H13.7143V62.1429H6.85714V55.2857ZM13.7143 55.2857H20.5714V62.1429H13.7143V55.2857ZM20.5714 55.2857H27.4286V62.1429H20.5714V55.2857ZM27.4286 55.2857H34.2857V62.1429H27.4286V55.2857ZM54.875 0.428574H68.5893V14.1429H54.875V0.428574ZM54.875 21H68.5893V69H54.875V21ZM123.5 21V27.8571H116.643V21H123.5ZM123.5 14.1429V21H116.643V14.1429H123.5ZM116.643 14.1429V21H109.786V14.1429H116.643ZM116.643 21V27.8571H109.786V21H116.643ZM116.643 27.8571V34.7143H109.786V27.8571H116.643ZM116.643 34.7143V41.5714H109.786V34.7143H116.643ZM116.643 41.5714V48.4286H109.786V41.5714H116.643ZM123.5 41.5714V48.4286H116.643V41.5714H123.5ZM123.5 34.7143V41.5714H116.643V34.7143H123.5ZM123.5 27.8571V34.7143H116.643V27.8571H123.5ZM123.5 48.4286V55.2857H116.643V48.4286H123.5ZM116.643 48.4286V55.2857H109.786V48.4286H116.643ZM116.643 55.2857V62.1429H109.786V55.2857H116.643ZM116.643 62.1429V69H109.786V62.1429H116.643ZM123.5 62.1429V69H116.643V62.1429H123.5ZM123.5 55.2857V62.1429H116.643V55.2857H123.5ZM89.2143 62.1429V69H82.3571V62.1429H89.2143ZM82.3571 55.2857V62.1429H75.5V55.2857H82.3571ZM82.3571 48.4286V55.2857H75.5V48.4286H82.3571ZM82.3571 41.5714V48.4286H75.5V41.5714H82.3571ZM82.3571 34.7143V41.5714H75.5V34.7143H82.3571ZM82.3571 27.8571V34.7143H75.5V27.8571H82.3571ZM82.3571 21V27.8571H75.5V21H82.3571ZM89.2143 34.7143V41.5714H82.3571V34.7143H89.2143ZM89.2143 41.5714V48.4286H82.3571V41.5714H89.2143ZM89.2143 48.4286V55.2857H82.3571V48.4286H89.2143ZM89.2143 55.2857V62.1429H82.3571V55.2857H89.2143ZM89.2143 27.8571V34.7143H82.3571V27.8571H89.2143ZM96.0714 21V27.8571H89.2143V21H96.0714ZM96.0714 14.1429V21H89.2143V14.1429H96.0714ZM89.2143 14.1429V21H82.3571V14.1429H89.2143ZM89.2143 21V27.8571H82.3571V21H89.2143ZM102.929 14.1429V21H96.0714V14.1429H102.929ZM123.5 0.428574V7.28571H116.643V0.428574H123.5ZM116.643 0.428574V7.28571H109.786V0.428574H116.643ZM116.643 7.28571V14.1429H109.786V7.28571H116.643ZM123.5 7.28571V14.1429H116.643V7.28571H123.5ZM102.929 62.1429V69H96.0714V62.1429H102.929ZM96.0714 62.1429V69H89.2143V62.1429H96.0714ZM96.0714 55.2857V62.1429H89.2143V55.2857H96.0714ZM102.929 55.2857V62.1429H96.0714V55.2857H102.929ZM109.786 55.2857V62.1429H102.929V55.2857H109.786ZM109.786 14.1429V21H102.929V14.1429H109.786ZM109.786 21V27.8571H102.929V21H109.786ZM102.929 21V27.8571H96.0714V21H102.929ZM144.089 62.1429H150.946V69H144.089V62.1429ZM144.089 55.2857H150.946V62.1429H144.089V55.2857ZM144.089 48.4286H150.946V55.2857H144.089V48.4286ZM137.232 55.2857H144.089V62.1429H137.232V55.2857ZM137.232 48.4286H144.089V55.2857H137.232V48.4286ZM130.375 48.4286H137.232V55.2857H130.375V48.4286ZM137.232 41.5714H144.089V48.4286H137.232V41.5714ZM150.946 48.4286H157.804V55.2857H150.946V48.4286ZM150.946 55.2857H157.804V62.1429H150.946V55.2857ZM157.804 48.4286H164.661V55.2857H157.804V48.4286ZM130.375 41.5714H137.232V48.4286H130.375V41.5714ZM137.232 34.7143H144.089V41.5714H137.232V34.7143ZM130.375 34.7143H137.232V41.5714H130.375V34.7143ZM130.375 27.8571H137.232V34.7143H130.375V27.8571ZM137.232 27.8571H144.089V34.7143H137.232V27.8571ZM137.232 21H144.089V27.8571H137.232V21ZM130.375 21H137.232V27.8571H130.375V21ZM130.375 14.1429H137.232V21H130.375V14.1429ZM137.232 14.1429H144.089V21H137.232V14.1429ZM130.375 0.428574H137.232V7.28571H130.375V0.428574ZM137.232 0.428574H144.089V7.28571H137.232V0.428574ZM137.232 7.28571H144.089V14.1429H137.232V7.28571ZM130.375 7.28571H137.232V14.1429H130.375V7.28571ZM178.375 62.1429H185.232V69H178.375V62.1429ZM178.375 55.2857H185.232V62.1429H178.375V55.2857ZM178.375 48.4286H185.232V55.2857H178.375V48.4286ZM171.518 55.2857H178.375V62.1429H171.518V55.2857ZM171.518 48.4286H178.375V55.2857H171.518V48.4286ZM164.661 48.4286H171.518V55.2857H164.661V48.4286ZM164.661 41.5714H171.518V48.4286H164.661V41.5714ZM185.232 48.4286H192.089V55.2857H185.232V48.4286ZM185.232 55.2857H192.089V62.1429H185.232V55.2857ZM185.232 41.5714H192.089V48.4286H185.232V41.5714ZM192.089 48.4286H198.946V55.2857H192.089V48.4286ZM192.089 41.5714H198.946V48.4286H192.089V41.5714ZM157.804 41.5714H164.661V48.4286H157.804V41.5714ZM185.232 0.428574H192.089V7.28571H185.232V0.428574ZM192.089 0.428574H198.946V7.28571H192.089V0.428574ZM192.089 7.28571H198.946V14.1429H192.089V7.28571ZM192.089 14.1429H198.946V21H192.089V14.1429ZM192.089 21H198.946V27.8571H192.089V21ZM192.089 27.8571H198.946V34.7143H192.089V27.8571ZM185.232 27.8571H192.089V34.7143H185.232V27.8571ZM185.232 34.7143H192.089V41.5714H185.232V34.7143ZM185.232 21H192.089V27.8571H185.232V21ZM185.232 14.1429H192.089V21H185.232V14.1429ZM185.232 7.28571H192.089V14.1429H185.232V7.28571ZM192.089 34.7143H198.946V41.5714H192.089V34.7143ZM164.661 34.7143H171.518V41.5714H164.661V34.7143ZM157.804 34.7143H164.661V41.5714H157.804V34.7143ZM157.804 27.8571H164.661V34.7143H157.804V27.8571ZM164.661 27.8571H171.518V34.7143H164.661V27.8571ZM164.661 21H171.518V27.8571H164.661V21ZM157.804 21H164.661V27.8571H157.804V21ZM157.804 14.1429H164.661V21H157.804V14.1429ZM164.661 14.1429H171.518V21H164.661V14.1429ZM157.804 0.428574H164.661V7.28571H157.804V0.428574ZM164.661 0.428574H171.518V7.28571H164.661V0.428574ZM164.661 7.28571H171.518V14.1429H164.661V7.28571ZM157.804 7.28571H164.661V14.1429H157.804V7.28571ZM219.464 14.1429H226.321V21H219.464V14.1429ZM212.607 14.1429H219.464V21H212.607V14.1429ZM212.607 21H219.464V27.8571H212.607V21ZM219.464 21H226.321V27.8571H219.464V21ZM226.321 14.1429H233.179V21H226.321V14.1429ZM233.179 14.1429H240.036V21H233.179V14.1429ZM240.036 14.1429H246.893V21H240.036V14.1429ZM240.036 21H246.893V27.8571H240.036V21ZM233.179 21H240.036V27.8571H233.179V21ZM240.036 34.7143H246.893V41.5714H240.036V34.7143ZM246.893 21H253.75V27.8571H246.893V21ZM246.893 27.8571H253.75V34.7143H246.893V27.8571ZM246.893 34.7143H253.75V41.5714H246.893V34.7143ZM246.893 41.5714H253.75V48.4286H246.893V41.5714ZM246.893 48.4286H253.75V55.2857H246.893V48.4286ZM246.893 55.2857H253.75V62.1429H246.893V55.2857ZM240.036 55.2857H246.893V62.1429H240.036V55.2857ZM240.036 48.4286H246.893V55.2857H240.036V48.4286ZM240.036 41.5714H246.893V48.4286H240.036V41.5714ZM240.036 27.8571H246.893V34.7143H240.036V27.8571ZM233.179 55.2857H240.036V62.1429H233.179V55.2857ZM240.036 62.1429H246.893V69H240.036V62.1429ZM233.179 62.1429H240.036V69H233.179V62.1429ZM226.321 62.1429H233.179V69H226.321V62.1429ZM219.464 62.1429H226.321V69H219.464V62.1429ZM212.607 62.1429H219.464V69H212.607V62.1429ZM212.607 55.2857H219.464V62.1429H212.607V55.2857ZM219.464 55.2857H226.321V62.1429H219.464V55.2857ZM212.607 48.4286H219.464V55.2857H212.607V48.4286ZM205.75 55.2857H212.607V62.1429H205.75V55.2857ZM205.75 48.4286H212.607V55.2857H205.75V48.4286ZM205.75 41.5714H212.607V48.4286H205.75V41.5714ZM205.75 34.7143H212.607V41.5714H205.75V34.7143ZM205.75 27.8571H212.607V34.7143H205.75V27.8571ZM205.75 21H212.607V27.8571H205.75V21ZM212.607 27.8571H219.464V34.7143H212.607V27.8571ZM212.607 34.7143H219.464V41.5714H212.607V34.7143ZM212.607 41.5714H219.464V48.4286H212.607V41.5714ZM226.321 55.2857H233.179V62.1429H226.321V55.2857ZM226.321 21H233.179V27.8571H226.321V21ZM260.625 21H267.482V27.8571H260.625V21ZM260.625 14.1429H267.482V21H260.625V14.1429ZM267.482 14.1429H274.339V21H267.482V14.1429ZM267.482 21H274.339V27.8571H267.482V21ZM267.482 27.8571H274.339V34.7143H267.482V27.8571ZM267.482 34.7143H274.339V41.5714H267.482V34.7143ZM267.482 41.5714H274.339V48.4286H267.482V41.5714ZM260.625 41.5714H267.482V48.4286H260.625V41.5714ZM260.625 34.7143H267.482V41.5714H260.625V34.7143ZM260.625 27.8571H267.482V34.7143H260.625V27.8571ZM260.625 48.4286H267.482V55.2857H260.625V48.4286ZM267.482 48.4286H274.339V55.2857H267.482V48.4286ZM267.482 55.2857H274.339V62.1429H267.482V55.2857ZM267.482 62.1429H274.339V69H267.482V62.1429ZM260.625 62.1429H267.482V69H260.625V62.1429ZM260.625 55.2857H267.482V62.1429H260.625V55.2857ZM274.339 21H281.196V27.8571H274.339V21ZM281.196 21H288.054V27.8571H281.196V21ZM288.054 21H294.911V27.8571H288.054V21ZM288.054 14.1429H294.911V21H288.054V14.1429ZM281.196 14.1429H288.054V21H281.196V14.1429ZM274.339 27.8571H281.196V34.7143H274.339V27.8571ZM294.911 21H301.768V27.8571H294.911V21ZM288.054 27.8571H294.911V34.7143H288.054V27.8571ZM308.625 0.428574H315.482V7.28571H308.625V0.428574ZM315.482 0.428574H322.339V7.28571H315.482V0.428574ZM315.482 7.28571H322.339V14.1429H315.482V7.28571ZM315.482 14.1429H322.339V21H315.482V14.1429ZM315.482 21H322.339V27.8571H315.482V21ZM308.625 21H315.482V27.8571H308.625V21ZM308.625 14.1429H315.482V21H308.625V14.1429ZM308.625 7.28571H315.482V14.1429H308.625V7.28571ZM308.625 27.8571H315.482V34.7143H308.625V27.8571ZM308.625 34.7143H315.482V41.5714H308.625V34.7143ZM308.625 41.5714H315.482V48.4286H308.625V41.5714ZM308.625 48.4286H315.482V55.2857H308.625V48.4286ZM308.625 55.2857H315.482V62.1429H308.625V55.2857ZM308.625 62.1429H315.482V69H308.625V62.1429ZM315.482 62.1429H322.339V69H315.482V62.1429ZM315.482 55.2857H322.339V62.1429H315.482V55.2857ZM315.482 48.4286H322.339V55.2857H315.482V48.4286ZM315.482 41.5714H322.339V48.4286H315.482V41.5714ZM315.482 34.7143H322.339V41.5714H315.482V34.7143ZM315.482 27.8571H322.339V34.7143H315.482V27.8571ZM322.339 34.7143H329.196V41.5714H322.339V34.7143ZM329.196 34.7143H336.054V41.5714H329.196V34.7143ZM329.196 27.8571H336.054V34.7143H329.196V27.8571ZM336.054 27.8571H342.911V34.7143H336.054V27.8571ZM336.054 21H342.911V27.8571H336.054V21ZM336.054 14.1429H342.911V21H336.054V14.1429ZM342.911 14.1429H349.768V21H342.911V14.1429ZM342.911 21H349.768V27.8571H342.911V21ZM329.196 41.5714H336.054V48.4286H329.196V41.5714ZM336.054 41.5714H342.911V48.4286H336.054V41.5714ZM342.911 48.4286H349.768V55.2857H342.911V48.4286ZM336.054 48.4286H342.911V55.2857H336.054V48.4286ZM336.054 55.2857H342.911V62.1429H336.054V55.2857ZM342.911 55.2857H349.768V62.1429H342.911V55.2857ZM342.911 62.1429H349.768V69H342.911V62.1429ZM336.054 62.1429H342.911V69H336.054V62.1429Z" fill="#1B1B1B"/>
</svg>
