<svg width="454" height="75" viewBox="0 0 454 75" fill="none" xmlns="http://www.w3.org/2000/svg">
<path d="M0.886364 74V4.18182H13.2273V30.2955H13.7386C14.375 29.0227 15.2727 27.6705 16.4318 26.2386C17.5909 24.7841 19.1591 23.5455 21.1364 22.5227C23.1136 21.4773 25.6364 20.9545 28.7045 20.9545C32.75 20.9545 36.3977 21.9886 39.6477 24.0568C42.9205 26.1023 45.5114 29.1364 47.4205 33.1591C49.3523 37.1591 50.3182 42.0682 50.3182 47.8864C50.3182 53.6364 49.375 58.5227 47.4886 62.5455C45.6023 66.5682 43.0341 69.6364 39.7841 71.75C36.5341 73.8636 32.8523 74.9205 28.7386 74.9205C25.7386 74.9205 23.25 74.4205 21.2727 73.4205C19.2955 72.4205 17.7045 71.2159 16.5 69.8068C15.3182 68.375 14.3977 67.0227 13.7386 65.75H13.0227V74H0.886364ZM12.9886 47.8182C12.9886 51.2045 13.4659 54.1705 14.4205 56.7159C15.3977 59.2614 16.7955 61.25 18.6136 62.6818C20.4545 64.0909 22.6818 64.7955 25.2955 64.7955C28.0227 64.7955 30.3068 64.0682 32.1477 62.6136C33.9886 61.1364 35.375 59.125 36.3068 56.5795C37.2614 54.0114 37.7386 51.0909 37.7386 47.8182C37.7386 44.5682 37.2727 41.6818 36.3409 39.1591C35.4091 36.6364 34.0227 34.6591 32.1818 33.2273C30.3409 31.7955 28.0455 31.0795 25.2955 31.0795C22.6591 31.0795 20.4205 31.7727 18.5795 33.1591C16.7386 34.5455 15.3409 36.4886 14.3864 38.9886C13.4545 41.4886 12.9886 44.4318 12.9886 47.8182ZM60.8097 74V21.6364H73.1506V74H60.8097ZM67.0142 14.2045C65.0597 14.2045 63.3778 13.5568 61.9688 12.2614C60.5597 10.9432 59.8551 9.36363 59.8551 7.52272C59.8551 5.65909 60.5597 4.07954 61.9688 2.78409C63.3778 1.46591 65.0597 0.806816 67.0142 0.806816C68.9915 0.806816 70.6733 1.46591 72.0597 2.78409C73.4688 4.07954 74.1733 5.65909 74.1733 7.52272C74.1733 9.36363 73.4688 10.9432 72.0597 12.2614C70.6733 13.5568 68.9915 14.2045 67.0142 14.2045ZM105.273 74.9205C101.159 74.9205 97.4773 73.8636 94.2273 71.75C90.9773 69.6364 88.4091 66.5682 86.5227 62.5455C84.6364 58.5227 83.6932 53.6364 83.6932 47.8864C83.6932 42.0682 84.6477 37.1591 86.5568 33.1591C88.4886 29.1364 91.0909 26.1023 94.3636 24.0568C97.6364 21.9886 101.284 20.9545 105.307 20.9545C108.375 20.9545 110.898 21.4773 112.875 22.5227C114.852 23.5455 116.42 24.7841 117.58 26.2386C118.739 27.6705 119.636 29.0227 120.273 30.2955H120.784V4.18182H133.159V74H121.023V65.75H120.273C119.636 67.0227 118.716 68.375 117.511 69.8068C116.307 71.2159 114.716 72.4205 112.739 73.4205C110.761 74.4205 108.273 74.9205 105.273 74.9205ZM108.716 64.7955C111.33 64.7955 113.557 64.0909 115.398 62.6818C117.239 61.25 118.636 59.2614 119.591 56.7159C120.545 54.1705 121.023 51.2045 121.023 47.8182C121.023 44.4318 120.545 41.4886 119.591 38.9886C118.659 36.4886 117.273 34.5455 115.432 33.1591C113.614 31.7727 111.375 31.0795 108.716 31.0795C105.966 31.0795 103.67 31.7955 101.83 33.2273C99.9886 34.6591 98.6023 36.6364 97.6705 39.1591C96.7386 41.6818 96.2727 44.5682 96.2727 47.8182C96.2727 51.0909 96.7386 54.0114 97.6705 56.5795C98.625 59.125 100.023 61.1364 101.864 62.6136C103.727 64.0682 106.011 64.7955 108.716 64.7955ZM161.753 74L141.776 4.18182H157.901L169.457 52.6932H170.037L182.787 4.18182H196.594L209.31 52.7955H209.923L221.48 4.18182H237.605L217.628 74H203.241L189.946 28.3523H189.401L176.139 74H161.753ZM269.438 74.9545C263.756 74.9545 258.892 73.8295 254.847 71.5795C250.801 69.3068 247.699 66.1477 245.54 62.1023C243.381 58.0341 242.301 53.3182 242.301 47.9545C242.301 42.5909 243.381 37.8864 245.54 33.8409C247.699 29.7727 250.801 26.6136 254.847 24.3636C258.892 22.0909 263.756 20.9545 269.438 20.9545C275.119 20.9545 279.983 22.0909 284.028 24.3636C288.074 26.6136 291.176 29.7727 293.335 33.8409C295.494 37.8864 296.574 42.5909 296.574 47.9545C296.574 53.3182 295.494 58.0341 293.335 62.1023C291.176 66.1477 288.074 69.3068 284.028 71.5795C279.983 73.8295 275.119 74.9545 269.438 74.9545ZM269.574 61.0455C271.165 61.0455 272.54 60.5114 273.699 59.4432C274.858 58.375 275.756 56.8523 276.392 54.875C277.028 52.8977 277.347 50.5455 277.347 47.8182C277.347 45.0682 277.028 42.7159 276.392 40.7614C275.756 38.7841 274.858 37.2614 273.699 36.1932C272.54 35.125 271.165 34.5909 269.574 34.5909C267.892 34.5909 266.449 35.125 265.244 36.1932C264.04 37.2614 263.119 38.7841 262.483 40.7614C261.847 42.7159 261.528 45.0682 261.528 47.8182C261.528 50.5455 261.847 52.8977 262.483 54.875C263.119 56.8523 264.04 58.375 265.244 59.4432C266.449 60.5114 267.892 61.0455 269.574 61.0455ZM304.21 74V21.6364H322.483V31.5909H323.028C323.983 27.9091 325.494 25.2159 327.562 23.5114C329.653 21.8068 332.097 20.9545 334.892 20.9545C335.71 20.9545 336.517 21.0227 337.312 21.1591C338.131 21.2727 338.915 21.4432 339.665 21.6705V37.7273C338.733 37.4091 337.585 37.1705 336.222 37.0114C334.858 36.8523 333.688 36.7727 332.71 36.7727C330.869 36.7727 329.21 37.1932 327.733 38.0341C326.278 38.8523 325.131 40.0114 324.29 41.5114C323.449 42.9886 323.028 44.7273 323.028 46.7273V74H304.21ZM362.744 61.5909L362.881 39.2273H365.335L378.017 21.6364H399.153L377.881 49.0455H372.562L362.744 61.5909ZM345.835 74V4.18182H364.653V74H345.835ZM378.153 74L366.153 53.2727L378.426 39.9091L399.699 74H378.153ZM451.918 38.6818H434.599C434.509 37.6136 434.134 36.6932 433.474 35.9205C432.815 35.1477 431.963 34.5568 430.918 34.1477C429.895 33.7159 428.759 33.5 427.509 33.5C425.895 33.5 424.509 33.7955 423.349 34.3864C422.19 34.9773 421.622 35.8182 421.645 36.9091C421.622 37.6818 421.952 38.3977 422.634 39.0568C423.338 39.7159 424.69 40.2273 426.69 40.5909L437.327 42.5C442.69 43.4773 446.679 45.125 449.293 47.4432C451.929 49.7386 453.259 52.8182 453.281 56.6818C453.259 60.4091 452.145 63.6477 449.94 66.3977C447.759 69.125 444.77 71.2386 440.974 72.7386C437.202 74.2159 432.895 74.9545 428.054 74.9545C420.054 74.9545 413.793 73.3182 409.27 70.0455C404.77 66.7727 402.259 62.4545 401.736 57.0909H420.418C420.668 58.75 421.486 60.0341 422.872 60.9432C424.281 61.8295 426.054 62.2727 428.19 62.2727C429.918 62.2727 431.338 61.9773 432.452 61.3864C433.588 60.7955 434.168 59.9545 434.19 58.8636C434.168 57.8636 433.668 57.0682 432.69 56.4773C431.736 55.8864 430.236 55.4091 428.19 55.0455L418.918 53.4091C413.577 52.4773 409.577 50.7045 406.918 48.0909C404.259 45.4773 402.94 42.1136 402.963 38C402.94 34.3636 403.895 31.2841 405.827 28.7614C407.781 26.2159 410.565 24.2841 414.179 22.9659C417.815 21.625 422.122 20.9545 427.099 20.9545C434.668 20.9545 440.634 22.5227 444.997 25.6591C449.384 28.7955 451.69 33.1364 451.918 38.6818Z" fill="black"/>
</svg>
