<svg width="52" height="52" viewBox="0 0 52 52" fill="none" xmlns="http://www.w3.org/2000/svg">
<g clip-path="url(#clip0_33_199)">
<path fill-rule="evenodd" clip-rule="evenodd" d="M51.5375 20.8106H26.5515C26.5515 23.4106 26.5515 28.6054 26.5333 31.2054H41.0127C40.4589 33.8028 38.4907 37.4402 35.7113 39.2732C35.7113 39.2732 35.7061 39.2888 35.7009 39.2862C32.0063 41.725 27.1287 42.2788 23.5069 41.5508C17.8311 40.425 13.3409 36.3092 11.5157 31.0806C11.5261 31.0728 11.5339 31 11.5417 30.9948C10.4003 27.75 10.4003 23.408 11.5417 20.8106C13.0107 16.0344 17.6387 11.6768 23.3197 10.4834C27.8931 9.51356 33.0515 10.564 36.8449 14.113C37.3493 13.619 43.8259 7.29576 44.3121 6.78096C31.3511 -4.95804 10.6005 -0.826642 2.83428 14.3288L2.81868 14.3574C0.961994 17.9621 -0.00450758 21.959 1.58047e-05 26.0137C0.00453919 30.0685 0.979956 34.0632 2.84468 37.6638L2.81868 37.6846C4.52834 40.9792 6.91186 43.8774 9.81444 46.1909C12.717 48.5045 16.0738 50.1817 19.6667 51.1136C27.4927 53.1676 37.4585 51.7636 44.1327 45.7264L44.1405 45.7342C49.7955 40.6434 53.3159 31.9646 51.5375 20.8106Z" fill="black"/>
</g>
<defs>
<clipPath id="clip0_33_199">
<rect width="52" height="52" fill="white"/>
</clipPath>
</defs>
</svg>
